<svg viewBox="0 0 886 980" fill="#8B5CF6" xmlns="http://www.w3.org/2000/svg">
  <path d="M408.7 16.6c-18 9-32.6 16.8-32.3 17.2.2.4 15.3 8.1 33.5 17.2L443 67.5 476.1 51c18.2-9.1 33.3-16.8 33.5-17.2.5-.8-64.9-33.8-66.8-33.7-.7 0-16.1 7.4-34.1 16.5z"/>
  <path d="M223 109.4c-52 26.1-94.3 47.7-94.1 48.2.2.5 17.8 9.7 39 20.6 34.2 17.4 38.9 20.1 41.1 23.4l2.5 3.7.3 50.6.3 50.6 62.2 31.1 62.2 31.2 51-25.6c43.8-21.9 51.6-25.5 55.5-25.5 3.9-.1 11.2 3.3 55.4 25.5l50.9 25.6 62.3-31.1 62.3-31.2.3-50.6.3-50.6 2.5-3.7c2.2-3.4 6.9-6 41.2-23.5 21.4-10.9 39.1-20 39.4-20.4.5-.5-188.6-95.7-190.1-95.7-.3 0-.5 21.5-.5 47.7 0 30.3-.4 49.2-1.1 51.6-2.3 8.2-3.6 9.1-63.1 38.8C458 222.5 446.2 228 443 228c-3.2 0-15-5.5-59.7-27.9-30.7-15.3-56.7-28.7-57.9-29.7-1.2-1.1-3-3.5-4-5.4-1.8-3.3-1.9-6.6-2.2-53.3-.1-27.3-.6-49.7-1-49.6-.4 0-43.2 21.3-95.2 47.3z"/>
  <path d="M354 104.5V147l35 17.5c19.2 9.6 35.4 17.5 36 17.5.7 0 1-14.6 1-42.3V97.5l-35.5-17.8C371 70 354.8 62 354.5 62c-.3 0-.5 19.1-.5 42.5zM495.3 79.8 460 97.5v42.2c0 27.7.3 42.3 1 42.3.6 0 16.8-7.9 36-17.5l35-17.5v-42.5c0-23.4-.3-42.5-.7-42.4-.5 0-16.7 8-36 17.7zM54 193.9l-33.5 16.8 33.3 16.7C72 236.5 87.7 244 88.5 244c2 0 66.5-32.3 66.5-33.2 0-.8-65.4-33.8-66.7-33.7-.5 0-15.9 7.6-34.3 16.8zM763.8 193.6c-18.1 9-32.8 16.7-32.8 17.2 0 .9 64.5 33.2 66.5 33.2s66.5-32.3 66.5-33.2c0-.8-65.4-33.8-66.7-33.7-.5 0-15.5 7.4-33.5 16.5zM.2 282l.3 43 35.3 17.4L71 359.9v-85.4l-35.5-17.8L0 239l.2 43zM152.3 251.3C138.9 258 128 263.7 128 264c0 .5 48.5 25 49.5 25 .3 0 .5-11.3.5-25 0-13.8-.3-25-.7-24.9-.5 0-11.7 5.5-25 12.2zM708 264c0 13.7.2 25 .5 25 1 0 49.5-24.5 49.5-25s-48.5-25-49.5-25c-.3 0-.5 11.2-.5 25zM850.3 256.9 815 274.5v85.4l35.3-17.5 35.2-17.5.3-21.4c.1-11.8.1-31.1 0-42.9l-.3-21.3-35.2 17.6zM106 326v34l33.5-16.7c18.4-9.3 33.5-17 33.5-17.3 0-.4-57.2-29.6-64.2-32.8L106 292v34zM746.3 308.8C728 318 713 325.7 713 326c0 .3 15.1 8 33.5 17.3L780 360v-34c0-18.7-.1-34-.2-34-.2 0-15.3 7.6-33.5 16.8z"/>
  <path d="M207 346.6c-1.3 1.5-27.2 15-58.2 30.5C100.9 401 92.3 405 88.5 405c-3.7 0-10.7-3.2-46.5-21L0 363v131c0 95.3.3 131 1.1 131 .6 0 19.4-9.3 41.8-20.7C78 586.4 84.1 583.6 88 583.7c3.9 0 12.3 3.9 60.9 28.2 31 15.5 57.2 29.2 58.3 30.4 4.9 5.6 4.8 4.4 4.8 73.6 0 43.4-.4 65.9-1.1 67.8-2.2 6-6.8 8.8-44.9 27.8-20.9 10.4-38 19.3-38 19.8 0 .4 42.9 22.1 95.3 48.2l95.2 47.5.5-50.3.5-50.2 3-4.4c2.9-4.3 5-5.5 53.2-29.5l50.3-25.1V576l-49.2-24.6c-27.1-13.5-50.4-25.6-51.6-26.8-5.9-5.3-5.7-2.9-6-67.1l-.3-59-54.4-27.3c-30-14.9-54.6-27.2-54.8-27.2-.1 0-1.3 1.2-2.7 2.6zM621.3 371.3l-54.2 27.2-.3 59c-.3 65.5 0 62.6-7 67.8-1.8 1.4-25 13.3-51.5 26.6L460 576v191.5l50.3 25.1c48.2 24 50.3 25.2 53.2 29.5l3 4.4.5 50.2.5 50.2 95.3-47.4c52.3-26.1 95.2-47.8 95.2-48.2 0-.5-17.1-9.4-38-19.8-20.9-10.5-39.2-20.1-40.6-21.4-5.5-5-5.4-3.8-5.4-74.1 0-68.9 0-68.4 4.7-73.7 1-1.2 27.3-14.9 58.3-30.4 46.7-23.4 57.2-28.3 60.7-28.3 3.7-.1 10.5 3.1 45.2 20.6 22.5 11.5 41.4 20.8 42 20.8.8 0 1.1-37.5 1.1-131V363l-42 21c-35.8 17.8-42.8 21-46.5 21-3.8 0-12.4-4-60.3-27.9-31-15.5-56.9-29-58.2-30.5-1.4-1.4-2.7-2.5-3-2.5-.3 0-24.9 12.2-54.7 27.2zM409.3 370.8C391 380 376 387.7 376 388c0 .3 15.1 8 33.5 17.3L443 422l33.5-16.7c18.4-9.3 33.5-17 33.5-17.3 0-.5-66.6-34.1-67.3-33.9-.1 0-15.2 7.5-33.4 16.7z"/>
  <path d="M354 458.8v42.7l35.5 17.8c19.5 9.7 35.7 17.7 36 17.7.3 0 .5-19.1.5-42.5V452l-36-18-36-18v42.8zM495.8 434.1 460 452v42.5c0 23.4.2 42.5.5 42.5s16.5-8 36-17.7l35.5-17.8v-42.7c0-23.6-.1-42.8-.2-42.7-.2 0-16.4 8.1-36 18zM54.3 636.8C36 646 21 653.8 21 654.1c0 .3 15.2 8 33.8 17.1l33.7 16.5 33.7-16.6c18.5-9.1 33.7-16.8 33.7-17.1 0-.5-67.1-34.2-67.9-34-.3 0-15.4 7.6-33.7 16.8zM763.3 636.8c-18.3 9.2-33.2 16.9-33.2 17.2 0 .3 15.2 8 33.7 17.1l33.7 16.6 33.8-16.5c18.5-9.1 33.7-16.8 33.7-17.1-.1-.6-67.2-34.3-68-34.1-.3 0-15.4 7.6-33.7 16.8zM0 725v43l33.3 16.6c18.2 9.1 34.2 17 35.5 17.5l2.2.9v-85.5l-35.5-17.8L0 682v43zM141.3 699.8 106 717.5V803l3.3-1.4c1.7-.7 17.8-8.8 35.7-17.9l32.5-16.6.3-42.5c.1-23.5-.1-42.6-.5-42.5-.5 0-16.7 8-36 17.7zM708.2 724.6l.3 42.5 32.5 16.6c17.9 9.1 34 17.2 35.8 17.9l3.2 1.4v-85.5l-35.5-17.8c-19.5-9.7-35.7-17.7-36-17.7-.3 0-.4 19.2-.3 42.6zM850.3 699.8 815 717.5V803l2.3-.9c1.2-.5 17.2-8.4 35.5-17.5L886 768v-43c0-23.7-.1-43-.2-42.9-.2 0-16.2 8-35.5 17.7zM400.8 818.2c-13.6 6.8-24.7 12.6-24.8 13.1 0 1 48.8 25.2 49.5 24.5.3-.3.4-11.6.3-25.2l-.3-24.7-24.7 12.3zM460 831v25.1l2.3-.7c4-1.2 47.7-23.4 47.7-24.2-.1-.5-40.7-21.2-49.2-25-.5-.2-.8 11-.8 24.8zM354 902v43l33.8 16.9c18.5 9.2 34.7 17.1 36 17.5l2.2.7V895l-36-18-36-18v43zM495.8 877.1 460 895v85.1l2.3-.7c1.2-.4 17.4-8.3 36-17.5L532 945v-43c0-23.7-.1-43-.2-42.9-.2 0-16.4 8.1-36 18z"/>
</svg>
